<svg width="40" height="33" viewBox="0 0 40 33" fill="none" xmlns="http://www.w3.org/2000/svg">
<path d="M2.25 0.937566C1.8356 0.937566 1.43817 1.10219 1.14515 1.39521C0.85212 1.68824 0.6875 2.08567 0.6875 2.50007C0.6875 2.91447 0.85212 3.31189 1.14515 3.60492C1.43817 3.89795 1.8356 4.06257 2.25 4.06257H5.71875L9.81875 20.4688C10.1672 21.8594 11.4125 22.8126 12.8453 22.8126H32.3297C33.7406 22.8126 34.9391 21.8751 35.3094 20.5157L39.3594 5.62507H36.0875L32.3281 19.6876H12.8437L8.74531 3.28132C8.57601 2.60824 8.18574 2.01144 7.637 1.58649C7.08825 1.16155 6.41278 0.933042 5.71875 0.937566H2.25ZM30.375 22.8126C27.8047 22.8126 25.6875 24.9298 25.6875 27.5001C25.6875 30.0704 27.8047 32.1876 30.375 32.1876C32.9453 32.1876 35.0625 30.0704 35.0625 27.5001C35.0625 24.9298 32.9453 22.8126 30.375 22.8126ZM16.3125 22.8126C13.7422 22.8126 11.625 24.9298 11.625 27.5001C11.625 30.0704 13.7422 32.1876 16.3125 32.1876C18.8828 32.1876 21 30.0704 21 27.5001C21 24.9298 18.8828 22.8126 16.3125 22.8126ZM21 0.937566V8.75007H16.3125L22.5625 15.0001L28.8125 8.75007H24.125V0.937566H21ZM16.3125 25.9376C17.1938 25.9376 17.875 26.6188 17.875 27.5001C17.875 28.3813 17.1938 29.0626 16.3125 29.0626C15.4312 29.0626 14.75 28.3813 14.75 27.5001C14.75 26.6188 15.4312 25.9376 16.3125 25.9376ZM30.375 25.9376C31.2563 25.9376 31.9375 26.6188 31.9375 27.5001C31.9375 28.3813 31.2563 29.0626 30.375 29.0626C29.4937 29.0626 28.8125 28.3813 28.8125 27.5001C28.8125 26.6188 29.4937 25.9376 30.375 25.9376Z" fill="#815B06"/>
</svg>
